<svg width="196" height="34" viewBox="0 0 196 34" fill="none" xmlns="http://www.w3.org/2000/svg">
<path d="M32.992 34H22.336L11.056 16.912V34H0.4V0.0159998H11.056L22.336 17.392V0.0159998H32.992V34ZM48.4623 8.512V12.688H59.0223V20.704H48.4623V25.504H60.4623V34H37.8063V0.0159998H60.4623V8.512H48.4623ZM91.1661 0.0159998V8.464H82.1421V34H71.4861V8.464H62.5581V0.0159998H91.1661ZM118.056 0.0159998V8.464H104.712V13.168H114.312V21.184H104.712V34H94.0563V0.0159998H118.056ZM132.322 25.936H142.594V34H121.666V0.0159998H132.322V25.936ZM156.603 0.0159998V34H145.947V0.0159998H156.603ZM183.064 34L176.824 25.168L171.64 34H159.496L170.68 16.48L159.016 0.0159998H171.64L177.64 8.512L182.632 0.0159998H194.776L183.784 17.2L195.688 34H183.064Z" fill="white"/>
</svg>
