<svg width="588" height="57" viewBox="0 0 588 57" fill="none" xmlns="http://www.w3.org/2000/svg">
<path d="M45.45 2.9V16.1H31.35V56H14.7V16.1H0.75V2.9H45.45ZM79.5908 13.4C84.4408 13.4 88.2158 15.025 90.9158 18.275C93.6658 21.525 95.0408 25.925 95.0408 31.475V56H78.4658V33.575C78.4658 31.575 77.9158 30 76.8158 28.85C75.7658 27.65 74.3408 27.05 72.5408 27.05C70.6908 27.05 69.2408 27.65 68.1908 28.85C67.1408 30 66.6158 31.575 66.6158 33.575V56H49.9658V0.499999H66.6158V20.15C67.9158 18.15 69.6408 16.525 71.7908 15.275C73.9908 14.025 76.5908 13.4 79.5908 13.4ZM143.211 34.475C143.211 35.625 143.136 36.725 142.986 37.775H116.211C116.461 41.425 117.986 43.25 120.786 43.25C122.586 43.25 123.886 42.425 124.686 40.775H142.311C141.711 43.775 140.436 46.475 138.486 48.875C136.586 51.225 134.161 53.1 131.211 54.5C128.311 55.85 125.111 56.525 121.611 56.525C117.411 56.525 113.661 55.65 110.361 53.9C107.111 52.15 104.561 49.65 102.711 46.4C100.911 43.1 100.011 39.25 100.011 34.85C100.011 30.45 100.911 26.625 102.711 23.375C104.561 20.075 107.111 17.55 110.361 15.8C113.661 14.05 117.411 13.175 121.611 13.175C125.811 13.175 129.536 14.05 132.786 15.8C136.086 17.5 138.636 19.95 140.436 23.15C142.286 26.35 143.211 30.125 143.211 34.475ZM126.336 30.5C126.336 29.1 125.886 28.05 124.986 27.35C124.086 26.6 122.961 26.225 121.611 26.225C118.661 26.225 116.936 27.65 116.436 30.5H126.336ZM193.771 21.05C193.121 20 192.196 19.2 190.996 18.65C189.796 18.05 188.346 17.75 186.646 17.75C183.446 17.75 180.971 18.8 179.221 20.9C177.471 22.95 176.596 25.775 176.596 29.375C176.596 33.525 177.571 36.625 179.521 38.675C181.471 40.725 184.471 41.75 188.521 41.75C192.371 41.75 195.471 40.2 197.821 37.1H184.546V25.325H211.621V41.975C209.321 45.925 206.146 49.325 202.096 52.175C198.046 54.975 192.921 56.375 186.721 56.375C181.221 56.375 176.421 55.25 172.321 53C168.271 50.7 165.146 47.5 162.946 43.4C160.796 39.3 159.721 34.625 159.721 29.375C159.721 24.125 160.796 19.45 162.946 15.35C165.146 11.25 168.271 8.075 172.321 5.825C176.371 3.525 181.121 2.375 186.571 2.375C193.521 2.375 199.171 4.05 203.521 7.4C207.921 10.75 210.521 15.3 211.321 21.05H193.771ZM237.717 56.525C233.467 56.525 229.642 55.65 226.242 53.9C222.842 52.15 220.167 49.65 218.217 46.4C216.317 43.1 215.367 39.25 215.367 34.85C215.367 30.45 216.317 26.625 218.217 23.375C220.167 20.075 222.842 17.55 226.242 15.8C229.642 14.05 233.467 13.175 237.717 13.175C241.967 13.175 245.792 14.05 249.192 15.8C252.592 17.55 255.242 20.075 257.142 23.375C259.092 26.625 260.067 30.45 260.067 34.85C260.067 39.25 259.092 43.1 257.142 46.4C255.242 49.65 252.592 52.15 249.192 53.9C245.792 55.65 241.967 56.525 237.717 56.525ZM237.717 42.125C239.267 42.125 240.567 41.525 241.617 40.325C242.667 39.075 243.192 37.25 243.192 34.85C243.192 32.45 242.667 30.65 241.617 29.45C240.567 28.2 239.267 27.575 237.717 27.575C236.167 27.575 234.867 28.2 233.817 29.45C232.767 30.65 232.242 32.45 232.242 34.85C232.242 37.25 232.742 39.075 233.742 40.325C234.792 41.525 236.117 42.125 237.717 42.125ZM285.398 56.525C281.148 56.525 277.323 55.65 273.923 53.9C270.523 52.15 267.848 49.65 265.898 46.4C263.998 43.1 263.048 39.25 263.048 34.85C263.048 30.45 263.998 26.625 265.898 23.375C267.848 20.075 270.523 17.55 273.923 15.8C277.323 14.05 281.148 13.175 285.398 13.175C289.648 13.175 293.473 14.05 296.873 15.8C300.273 17.55 302.923 20.075 304.823 23.375C306.773 26.625 307.748 30.45 307.748 34.85C307.748 39.25 306.773 43.1 304.823 46.4C302.923 49.65 300.273 52.15 296.873 53.9C293.473 55.65 289.648 56.525 285.398 56.525ZM285.398 42.125C286.948 42.125 288.248 41.525 289.298 40.325C290.348 39.075 290.873 37.25 290.873 34.85C290.873 32.45 290.348 30.65 289.298 29.45C288.248 28.2 286.948 27.575 285.398 27.575C283.848 27.575 282.548 28.2 281.498 29.45C280.448 30.65 279.923 32.45 279.923 34.85C279.923 37.25 280.423 39.075 281.423 40.325C282.473 41.525 283.798 42.125 285.398 42.125ZM310.729 34.85C310.729 30.4 311.479 26.55 312.979 23.3C314.529 20 316.629 17.5 319.279 15.8C321.929 14.05 324.904 13.175 328.204 13.175C330.954 13.175 333.304 13.75 335.254 14.9C337.254 16 338.779 17.525 339.829 19.475V0.499999H356.479V56H339.829V50.225C338.779 52.175 337.254 53.725 335.254 54.875C333.304 55.975 330.954 56.525 328.204 56.525C324.904 56.525 321.929 55.675 319.279 53.975C316.629 52.225 314.529 49.725 312.979 46.475C311.479 43.175 310.729 39.3 310.729 34.85ZM339.904 34.85C339.904 32.6 339.329 30.85 338.179 29.6C337.029 28.35 335.554 27.725 333.754 27.725C331.954 27.725 330.479 28.35 329.329 29.6C328.179 30.85 327.604 32.6 327.604 34.85C327.604 37.1 328.179 38.85 329.329 40.1C330.479 41.35 331.954 41.975 333.754 41.975C335.554 41.975 337.029 41.35 338.179 40.1C339.329 38.85 339.904 37.1 339.904 34.85ZM420.124 21.125C420.124 24.475 419.349 27.525 417.799 30.275C416.249 32.975 413.949 35.125 410.899 36.725C407.899 38.325 404.249 39.125 399.949 39.125H393.349V56H376.699V2.9H399.949C406.449 2.9 411.424 4.55 414.874 7.85C418.374 11.15 420.124 15.575 420.124 21.125ZM398.074 26C401.524 26 403.249 24.375 403.249 21.125C403.249 17.875 401.524 16.25 398.074 16.25H393.349V26H398.074ZM442.055 0.499999V56H425.405V0.499999H442.055ZM447.325 34.85C447.325 30.4 448.075 26.55 449.575 23.3C451.125 20 453.225 17.5 455.875 15.8C458.525 14.05 461.5 13.175 464.8 13.175C467.55 13.175 469.925 13.75 471.925 14.9C473.925 16 475.45 17.525 476.5 19.475V13.7H493.075V56H476.5V50.225C475.45 52.175 473.925 53.725 471.925 54.875C469.925 55.975 467.55 56.525 464.8 56.525C461.5 56.525 458.525 55.675 455.875 53.975C453.225 52.225 451.125 49.725 449.575 46.475C448.075 43.175 447.325 39.3 447.325 34.85ZM476.5 34.85C476.5 32.6 475.925 30.85 474.775 29.6C473.625 28.35 472.15 27.725 470.35 27.725C468.55 27.725 467.075 28.35 465.925 29.6C464.775 30.85 464.2 32.6 464.2 34.85C464.2 37.1 464.775 38.85 465.925 40.1C467.075 41.35 468.55 41.975 470.35 41.975C472.15 41.975 473.625 41.35 474.775 40.1C475.925 38.85 476.5 37.1 476.5 34.85ZM498.302 34.85C498.302 30.45 499.202 26.625 501.002 23.375C502.852 20.075 505.402 17.55 508.652 15.8C511.952 14.05 515.702 13.175 519.902 13.175C525.402 13.175 530.027 14.725 533.777 17.825C537.577 20.925 539.977 25.225 540.977 30.725H523.352C522.702 28.525 521.427 27.425 519.527 27.425C518.177 27.425 517.102 28.05 516.302 29.3C515.552 30.55 515.177 32.4 515.177 34.85C515.177 37.3 515.552 39.15 516.302 40.4C517.102 41.65 518.177 42.275 519.527 42.275C521.427 42.275 522.702 41.175 523.352 38.975H540.977C539.977 44.475 537.577 48.775 533.777 51.875C530.027 54.975 525.402 56.525 519.902 56.525C515.702 56.525 511.952 55.65 508.652 53.9C505.402 52.15 502.852 49.65 501.002 46.4C499.202 43.1 498.302 39.25 498.302 34.85ZM587.205 34.475C587.205 35.625 587.13 36.725 586.98 37.775H560.205C560.455 41.425 561.98 43.25 564.78 43.25C566.58 43.25 567.88 42.425 568.68 40.775H586.305C585.705 43.775 584.43 46.475 582.48 48.875C580.58 51.225 578.155 53.1 575.205 54.5C572.305 55.85 569.105 56.525 565.605 56.525C561.405 56.525 557.655 55.65 554.355 53.9C551.105 52.15 548.555 49.65 546.705 46.4C544.905 43.1 544.005 39.25 544.005 34.85C544.005 30.45 544.905 26.625 546.705 23.375C548.555 20.075 551.105 17.55 554.355 15.8C557.655 14.05 561.405 13.175 565.605 13.175C569.805 13.175 573.53 14.05 576.78 15.8C580.08 17.5 582.63 19.95 584.43 23.15C586.28 26.35 587.205 30.125 587.205 34.475ZM570.33 30.5C570.33 29.1 569.88 28.05 568.98 27.35C568.08 26.6 566.955 26.225 565.605 26.225C562.655 26.225 560.93 27.65 560.43 30.5H570.33Z" fill="#FFF500"/>
</svg>
