<svg width="502" height="49" viewBox="0 0 502 49" fill="none" xmlns="http://www.w3.org/2000/svg">
<path d="M38.784 2.688V13.952H26.752V48H12.544V13.952H0.64V2.688H38.784ZM67.9175 11.648C72.0562 11.648 75.2775 13.0347 77.5815 15.808C79.9282 18.5813 81.1015 22.336 81.1015 27.072V48H66.9575V28.864C66.9575 27.1573 66.4882 25.8133 65.5495 24.832C64.6535 23.808 63.4375 23.296 61.9015 23.296C60.3228 23.296 59.0855 23.808 58.1895 24.832C57.2935 25.8133 56.8455 27.1573 56.8455 28.864V48H42.6375V0.639999H56.8455V17.408C57.9548 15.7013 59.4268 14.3147 61.2615 13.248C63.1388 12.1813 65.3575 11.648 67.9175 11.648ZM122.207 29.632C122.207 30.6133 122.143 31.552 122.015 32.448H99.1665C99.3798 35.5627 100.681 37.12 103.071 37.12C104.607 37.12 105.716 36.416 106.399 35.008H121.439C120.927 37.568 119.839 39.872 118.175 41.92C116.553 43.9253 114.484 45.5253 111.967 46.72C109.492 47.872 106.761 48.448 103.775 48.448C100.191 48.448 96.9905 47.7013 94.1745 46.208C91.4012 44.7147 89.2252 42.5813 87.6465 39.808C86.1105 36.992 85.3425 33.7067 85.3425 29.952C85.3425 26.1973 86.1105 22.9333 87.6465 20.16C89.2252 17.344 91.4012 15.1893 94.1745 13.696C96.9905 12.2027 100.191 11.456 103.775 11.456C107.359 11.456 110.537 12.2027 113.311 13.696C116.127 15.1467 118.303 17.2373 119.839 19.968C121.417 22.6987 122.207 25.92 122.207 29.632ZM107.807 26.24C107.807 25.0453 107.423 24.1493 106.655 23.552C105.887 22.912 104.927 22.592 103.775 22.592C101.257 22.592 99.7852 23.808 99.3585 26.24H107.807ZM165.351 18.176C164.796 17.28 164.007 16.5973 162.983 16.128C161.959 15.616 160.722 15.36 159.271 15.36C156.54 15.36 154.428 16.256 152.935 18.048C151.442 19.7973 150.695 22.208 150.695 25.28C150.695 28.8213 151.527 31.4667 153.191 33.216C154.855 34.9653 157.415 35.84 160.871 35.84C164.156 35.84 166.802 34.5173 168.807 31.872H157.479V21.824H180.583V36.032C178.62 39.4027 175.911 42.304 172.455 44.736C168.999 47.1253 164.626 48.32 159.335 48.32C154.642 48.32 150.546 47.36 147.047 45.44C143.591 43.4773 140.924 40.7467 139.047 37.248C137.212 33.7493 136.295 29.76 136.295 25.28C136.295 20.8 137.212 16.8107 139.047 13.312C140.924 9.81333 143.591 7.104 147.047 5.184C150.503 3.22133 154.556 2.24 159.207 2.24C165.138 2.24 169.959 3.66933 173.671 6.528C177.426 9.38667 179.644 13.2693 180.327 18.176H165.351ZM202.852 48.448C199.225 48.448 195.961 47.7013 193.06 46.208C190.159 44.7147 187.876 42.5813 186.212 39.808C184.591 36.992 183.78 33.7067 183.78 29.952C183.78 26.1973 184.591 22.9333 186.212 20.16C187.876 17.344 190.159 15.1893 193.06 13.696C195.961 12.2027 199.225 11.456 202.852 11.456C206.479 11.456 209.743 12.2027 212.644 13.696C215.545 15.1893 217.807 17.344 219.428 20.16C221.092 22.9333 221.924 26.1973 221.924 29.952C221.924 33.7067 221.092 36.992 219.428 39.808C217.807 42.5813 215.545 44.7147 212.644 46.208C209.743 47.7013 206.479 48.448 202.852 48.448ZM202.852 36.16C204.175 36.16 205.284 35.648 206.18 34.624C207.076 33.5573 207.524 32 207.524 29.952C207.524 27.904 207.076 26.368 206.18 25.344C205.284 24.2773 204.175 23.744 202.852 23.744C201.529 23.744 200.42 24.2773 199.524 25.344C198.628 26.368 198.18 27.904 198.18 29.952C198.18 32 198.607 33.5573 199.46 34.624C200.356 35.648 201.487 36.16 202.852 36.16ZM243.54 48.448C239.913 48.448 236.649 47.7013 233.748 46.208C230.846 44.7147 228.564 42.5813 226.9 39.808C225.278 36.992 224.468 33.7067 224.468 29.952C224.468 26.1973 225.278 22.9333 226.9 20.16C228.564 17.344 230.846 15.1893 233.748 13.696C236.649 12.2027 239.913 11.456 243.54 11.456C247.166 11.456 250.43 12.2027 253.332 13.696C256.233 15.1893 258.494 17.344 260.116 20.16C261.78 22.9333 262.612 26.1973 262.612 29.952C262.612 33.7067 261.78 36.992 260.116 39.808C258.494 42.5813 256.233 44.7147 253.332 46.208C250.43 47.7013 247.166 48.448 243.54 48.448ZM243.54 36.16C244.862 36.16 245.972 35.648 246.868 34.624C247.764 33.5573 248.212 32 248.212 29.952C248.212 27.904 247.764 26.368 246.868 25.344C245.972 24.2773 244.862 23.744 243.54 23.744C242.217 23.744 241.108 24.2773 240.212 25.344C239.316 26.368 238.868 27.904 238.868 29.952C238.868 32 239.294 33.5573 240.148 34.624C241.044 35.648 242.174 36.16 243.54 36.16ZM265.155 29.952C265.155 26.1547 265.795 22.8693 267.075 20.096C268.398 17.28 270.19 15.1467 272.451 13.696C274.712 12.2027 277.251 11.456 280.067 11.456C282.414 11.456 284.419 11.9467 286.083 12.928C287.79 13.8667 289.091 15.168 289.987 16.832V0.639999H304.195V48H289.987V43.072C289.091 44.736 287.79 46.0587 286.083 47.04C284.419 47.9787 282.414 48.448 280.067 48.448C277.251 48.448 274.712 47.7227 272.451 46.272C270.19 44.7787 268.398 42.6453 267.075 39.872C265.795 37.056 265.155 33.7493 265.155 29.952ZM290.051 29.952C290.051 28.032 289.56 26.5387 288.579 25.472C287.598 24.4053 286.339 23.872 284.803 23.872C283.267 23.872 282.008 24.4053 281.027 25.472C280.046 26.5387 279.555 28.032 279.555 29.952C279.555 31.872 280.046 33.3653 281.027 34.432C282.008 35.4987 283.267 36.032 284.803 36.032C286.339 36.032 287.598 35.4987 288.579 34.432C289.56 33.3653 290.051 31.872 290.051 29.952ZM358.506 18.24C358.506 21.0987 357.845 23.7013 356.522 26.048C355.199 28.352 353.237 30.1867 350.634 31.552C348.074 32.9173 344.959 33.6 341.29 33.6H335.658V48H321.45V2.688H341.29C346.837 2.688 351.082 4.096 354.026 6.912C357.013 9.728 358.506 13.504 358.506 18.24ZM339.69 22.4C342.634 22.4 344.106 21.0133 344.106 18.24C344.106 15.4667 342.634 14.08 339.69 14.08H335.658V22.4H339.69ZM377.221 0.639999V48H363.013V0.639999H377.221ZM381.718 29.952C381.718 26.1547 382.358 22.8693 383.638 20.096C384.96 17.28 386.752 15.1467 389.014 13.696C391.275 12.2027 393.814 11.456 396.63 11.456C398.976 11.456 401.003 11.9467 402.71 12.928C404.416 13.8667 405.718 15.168 406.614 16.832V11.904H420.758V48H406.614V43.072C405.718 44.736 404.416 46.0587 402.71 47.04C401.003 47.9787 398.976 48.448 396.63 48.448C393.814 48.448 391.275 47.7227 389.014 46.272C386.752 44.7787 384.96 42.6453 383.638 39.872C382.358 37.056 381.718 33.7493 381.718 29.952ZM406.614 29.952C406.614 28.032 406.123 26.5387 405.142 25.472C404.16 24.4053 402.902 23.872 401.366 23.872C399.83 23.872 398.571 24.4053 397.59 25.472C396.608 26.5387 396.118 28.032 396.118 29.952C396.118 31.872 396.608 33.3653 397.59 34.432C398.571 35.4987 399.83 36.032 401.366 36.032C402.902 36.032 404.16 35.4987 405.142 34.432C406.123 33.3653 406.614 31.872 406.614 29.952ZM425.218 29.952C425.218 26.1973 425.986 22.9333 427.522 20.16C429.1 17.344 431.276 15.1893 434.05 13.696C436.866 12.2027 440.066 11.456 443.65 11.456C448.343 11.456 452.29 12.7787 455.49 15.424C458.732 18.0693 460.78 21.7387 461.634 26.432H446.594C446.039 24.5547 444.951 23.616 443.33 23.616C442.178 23.616 441.26 24.1493 440.578 25.216C439.938 26.2827 439.618 27.8613 439.618 29.952C439.618 32.0427 439.938 33.6213 440.578 34.688C441.26 35.7547 442.178 36.288 443.33 36.288C444.951 36.288 446.039 35.3493 446.594 33.472H461.634C460.78 38.1653 458.732 41.8347 455.49 44.48C452.29 47.1253 448.343 48.448 443.65 48.448C440.066 48.448 436.866 47.7013 434.05 46.208C431.276 44.7147 429.1 42.5813 427.522 39.808C425.986 36.992 425.218 33.7067 425.218 29.952ZM501.082 29.632C501.082 30.6133 501.018 31.552 500.89 32.448H478.042C478.255 35.5627 479.556 37.12 481.946 37.12C483.482 37.12 484.591 36.416 485.274 35.008H500.314C499.802 37.568 498.714 39.872 497.05 41.92C495.428 43.9253 493.359 45.5253 490.842 46.72C488.367 47.872 485.636 48.448 482.65 48.448C479.066 48.448 475.866 47.7013 473.05 46.208C470.276 44.7147 468.1 42.5813 466.522 39.808C464.986 36.992 464.218 33.7067 464.218 29.952C464.218 26.1973 464.986 22.9333 466.522 20.16C468.1 17.344 470.276 15.1893 473.05 13.696C475.866 12.2027 479.066 11.456 482.65 11.456C486.234 11.456 489.412 12.2027 492.186 13.696C495.002 15.1467 497.178 17.2373 498.714 19.968C500.292 22.6987 501.082 25.92 501.082 29.632ZM486.682 26.24C486.682 25.0453 486.298 24.1493 485.53 23.552C484.762 22.912 483.802 22.592 482.65 22.592C480.132 22.592 478.66 23.808 478.234 26.24H486.682Z" fill="#FFF500"/>
</svg>
