<svg width="650" height="63" viewBox="0 0 650 63" fill="none" xmlns="http://www.w3.org/2000/svg">
<path d="M50.298 3.236V17.844H34.694V62H16.268V17.844H0.83V3.236H50.298ZM88.0805 14.856C93.4478 14.856 97.6255 16.6543 100.614 20.251C103.657 23.8477 105.179 28.717 105.179 34.859V62H86.8355V37.183C86.8355 34.9697 86.2268 33.2267 85.0095 31.954C83.8475 30.626 82.2705 29.962 80.2785 29.962C78.2312 29.962 76.6265 30.626 75.4645 31.954C74.3025 33.2267 73.7215 34.9697 73.7215 37.183V62H55.2955V0.579999H73.7215V22.326C75.1602 20.1127 77.0692 18.3143 79.4485 16.931C81.8832 15.5477 84.7605 14.856 88.0805 14.856ZM158.487 38.179C158.487 39.4517 158.404 40.669 158.238 41.831H128.607C128.883 45.8703 130.571 47.89 133.67 47.89C135.662 47.89 137.1 46.977 137.986 45.151H157.491C156.827 48.471 155.416 51.459 153.258 54.115C151.155 56.7157 148.471 58.7907 145.207 60.34C141.997 61.834 138.456 62.581 134.583 62.581C129.935 62.581 125.785 61.6127 122.133 59.676C118.536 57.7393 115.714 54.9727 113.667 51.376C111.675 47.724 110.679 43.4633 110.679 38.594C110.679 33.7247 111.675 29.4917 113.667 25.895C115.714 22.243 118.536 19.4487 122.133 17.512C125.785 15.5753 129.935 14.607 134.583 14.607C139.231 14.607 143.353 15.5753 146.95 17.512C150.602 19.3933 153.424 22.1047 155.416 25.646C157.463 29.1873 158.487 33.365 158.487 38.179ZM139.812 33.78C139.812 32.2307 139.314 31.0687 138.318 30.294C137.322 29.464 136.077 29.049 134.583 29.049C131.318 29.049 129.409 30.626 128.856 33.78H139.812ZM214.44 23.322C213.72 22.16 212.697 21.2747 211.369 20.666C210.041 20.002 208.436 19.67 206.555 19.67C203.013 19.67 200.274 20.832 198.338 23.156C196.401 25.4247 195.433 28.551 195.433 32.535C195.433 37.1277 196.512 40.5583 198.67 42.827C200.828 45.0957 204.148 46.23 208.63 46.23C212.89 46.23 216.321 44.5147 218.922 41.084H204.231V28.053H234.194V46.479C231.648 50.8503 228.135 54.613 223.653 57.767C219.171 60.8657 213.499 62.415 206.638 62.415C200.551 62.415 195.239 61.17 190.702 58.68C186.22 56.1347 182.761 52.5933 180.327 48.056C177.947 43.5187 176.758 38.345 176.758 32.535C176.758 26.725 177.947 21.5513 180.327 17.014C182.761 12.4767 186.22 8.963 190.702 6.473C195.184 3.92766 200.44 2.655 206.472 2.655C214.163 2.655 220.416 4.50866 225.23 8.216C230.099 11.9233 232.976 16.9587 233.862 23.322H214.44ZM263.074 62.581C258.37 62.581 254.137 61.6127 250.375 59.676C246.612 57.7393 243.652 54.9727 241.494 51.376C239.391 47.724 238.34 43.4633 238.34 38.594C238.34 33.7247 239.391 29.4917 241.494 25.895C243.652 22.243 246.612 19.4487 250.375 17.512C254.137 15.5753 258.37 14.607 263.074 14.607C267.777 14.607 272.01 15.5753 275.773 17.512C279.535 19.4487 282.468 22.243 284.571 25.895C286.729 29.4917 287.808 33.7247 287.808 38.594C287.808 43.4633 286.729 47.724 284.571 51.376C282.468 54.9727 279.535 57.7393 275.773 59.676C272.01 61.6127 267.777 62.581 263.074 62.581ZM263.074 46.645C264.789 46.645 266.228 45.981 267.39 44.653C268.552 43.2697 269.133 41.25 269.133 38.594C269.133 35.938 268.552 33.946 267.39 32.618C266.228 31.2347 264.789 30.543 263.074 30.543C261.358 30.543 259.92 31.2347 258.758 32.618C257.596 33.946 257.015 35.938 257.015 38.594C257.015 41.25 257.568 43.2697 258.675 44.653C259.837 45.981 261.303 46.645 263.074 46.645ZM315.84 62.581C311.137 62.581 306.904 61.6127 303.141 59.676C299.379 57.7393 296.418 54.9727 294.26 51.376C292.158 47.724 291.106 43.4633 291.106 38.594C291.106 33.7247 292.158 29.4917 294.26 25.895C296.418 22.243 299.379 19.4487 303.141 17.512C306.904 15.5753 311.137 14.607 315.84 14.607C320.544 14.607 324.777 15.5753 328.539 17.512C332.302 19.4487 335.235 22.243 337.337 25.895C339.495 29.4917 340.574 33.7247 340.574 38.594C340.574 43.4633 339.495 47.724 337.337 51.376C335.235 54.9727 332.302 57.7393 328.539 59.676C324.777 61.6127 320.544 62.581 315.84 62.581ZM315.84 46.645C317.556 46.645 318.994 45.981 320.156 44.653C321.318 43.2697 321.899 41.25 321.899 38.594C321.899 35.938 321.318 33.946 320.156 32.618C318.994 31.2347 317.556 30.543 315.84 30.543C314.125 30.543 312.686 31.2347 311.524 32.618C310.362 33.946 309.781 35.938 309.781 38.594C309.781 41.25 310.335 43.2697 311.441 44.653C312.603 45.981 314.07 46.645 315.84 46.645ZM343.873 38.594C343.873 33.6693 344.703 29.4087 346.363 25.812C348.078 22.16 350.402 19.3933 353.335 17.512C356.268 15.5753 359.56 14.607 363.212 14.607C366.255 14.607 368.856 15.2433 371.014 16.516C373.227 17.7333 374.915 19.421 376.077 21.579V0.579999H394.503V62H376.077V55.609C374.915 57.767 373.227 59.4823 371.014 60.755C368.856 61.9723 366.255 62.581 363.212 62.581C359.56 62.581 356.268 61.6403 353.335 59.759C350.402 57.8223 348.078 55.0557 346.363 51.459C344.703 47.807 343.873 43.5187 343.873 38.594ZM376.16 38.594C376.16 36.104 375.524 34.1673 374.251 32.784C372.978 31.4007 371.346 30.709 369.354 30.709C367.362 30.709 365.73 31.4007 364.457 32.784C363.184 34.1673 362.548 36.104 362.548 38.594C362.548 41.084 363.184 43.0207 364.457 44.404C365.73 45.7873 367.362 46.479 369.354 46.479C371.346 46.479 372.978 45.7873 374.251 44.404C375.524 43.0207 376.16 41.084 376.16 38.594ZM464.937 23.405C464.937 27.1123 464.08 30.4877 462.364 33.531C460.649 36.519 458.104 38.8983 454.728 40.669C451.408 42.4397 447.369 43.325 442.61 43.325H435.306V62H416.88V3.236H442.61C449.804 3.236 455.309 5.062 459.127 8.714C463.001 12.366 464.937 17.263 464.937 23.405ZM440.535 28.8C444.353 28.8 446.262 27.0017 446.262 23.405C446.262 19.8083 444.353 18.01 440.535 18.01H435.306V28.8H440.535ZM489.208 0.579999V62H470.782V0.579999H489.208ZM495.04 38.594C495.04 33.6693 495.87 29.4087 497.53 25.812C499.245 22.16 501.569 19.3933 504.502 17.512C507.435 15.5753 510.727 14.607 514.379 14.607C517.422 14.607 520.051 15.2433 522.264 16.516C524.477 17.7333 526.165 19.421 527.327 21.579V15.188H545.67V62H527.327V55.609C526.165 57.767 524.477 59.4823 522.264 60.755C520.051 61.9723 517.422 62.581 514.379 62.581C510.727 62.581 507.435 61.6403 504.502 59.759C501.569 57.8223 499.245 55.0557 497.53 51.459C495.87 47.807 495.04 43.5187 495.04 38.594ZM527.327 38.594C527.327 36.104 526.691 34.1673 525.418 32.784C524.145 31.4007 522.513 30.709 520.521 30.709C518.529 30.709 516.897 31.4007 515.624 32.784C514.351 34.1673 513.715 36.104 513.715 38.594C513.715 41.084 514.351 43.0207 515.624 44.404C516.897 45.7873 518.529 46.479 520.521 46.479C522.513 46.479 524.145 45.7873 525.418 44.404C526.691 43.0207 527.327 41.084 527.327 38.594ZM551.454 38.594C551.454 33.7247 552.45 29.4917 554.442 25.895C556.489 22.243 559.311 19.4487 562.908 17.512C566.56 15.5753 570.71 14.607 575.358 14.607C581.445 14.607 586.563 16.3223 590.713 19.753C594.918 23.1837 597.574 27.9423 598.681 34.029H579.176C578.457 31.5943 577.046 30.377 574.943 30.377C573.449 30.377 572.259 31.0687 571.374 32.452C570.544 33.8353 570.129 35.8827 570.129 38.594C570.129 41.3053 570.544 43.3527 571.374 44.736C572.259 46.1193 573.449 46.811 574.943 46.811C577.046 46.811 578.457 45.5937 579.176 43.159H598.681C597.574 49.2457 594.918 54.0043 590.713 57.435C586.563 60.8657 581.445 62.581 575.358 62.581C570.71 62.581 566.56 61.6127 562.908 59.676C559.311 57.7393 556.489 54.9727 554.442 51.376C552.45 47.724 551.454 43.4633 551.454 38.594ZM649.84 38.179C649.84 39.4517 649.757 40.669 649.591 41.831H619.96C620.237 45.8703 621.924 47.89 625.023 47.89C627.015 47.89 628.454 46.977 629.339 45.151H648.844C648.18 48.471 646.769 51.459 644.611 54.115C642.508 56.7157 639.825 58.7907 636.56 60.34C633.351 61.834 629.809 62.581 625.936 62.581C621.288 62.581 617.138 61.6127 613.486 59.676C609.889 57.7393 607.067 54.9727 605.02 51.376C603.028 47.724 602.032 43.4633 602.032 38.594C602.032 33.7247 603.028 29.4917 605.02 25.895C607.067 22.243 609.889 19.4487 613.486 17.512C617.138 15.5753 621.288 14.607 625.936 14.607C630.584 14.607 634.706 15.5753 638.303 17.512C641.955 19.3933 644.777 22.1047 646.769 25.646C648.816 29.1873 649.84 33.365 649.84 38.179ZM631.165 33.78C631.165 32.2307 630.667 31.0687 629.671 30.294C628.675 29.464 627.43 29.049 625.936 29.049C622.671 29.049 620.762 30.626 620.209 33.78H631.165Z" fill="#FFF500"/>
</svg>
